<?xml version="1.0" encoding="UTF-8"?><svg xmlns="http://www.w3.org/2000/svg" xmlns:xlink="http://www.w3.org/1999/xlink" version="1.1" id="Layer_1" x="0px" y="0px" viewBox="0 0 150 150" xml:space="preserve"><style type="text/css">.st0{fill:#45B39C;} .st1{opacity:0.1;} .st2{fill:#F6C358;} .st3{fill:#FCD462;} .st4{fill:none;} .st5{fill:#DC8744;} .st6{fill:#334D5C;} .st7{fill:#EFC84A;} .st8{fill:#44C4A1;} .st9{fill:#3EA69B;} .st10{fill:#E1E6E9;} .st11{fill:#EBF0F3;} .st12{fill:#27A2DB;} .st13{fill:#2D93BA;} .st14{fill:#D5D6DB;} .st15{fill:#EA8953;} .st16{fill:#E56353;} .st17{fill:#E05B49;} .st18{fill:#31978C;} .st19{fill:#D15241;} .st20{fill:#64798A;} .st21{fill:#3A556A;} .st22{fill:#1C75A1;} .st23{fill:#FFFFFF;} .st24{fill:#2F4859;} .st25{fill:#3B566A;} .st26{fill:#64798A;stroke:#3B566A;stroke-width:2;stroke-linecap:round;stroke-linejoin:round;stroke-miterlimit:10;} .st27{fill:#CE412D;} .st28{fill:none;stroke:#2D93BA;stroke-width:4;stroke-miterlimit:10;}</style><path class="st7" fill="#EFC84A" d="M11 11h128v128H11z"/><path class="st1" d="M139 85.967L99.28 46.246c-.55-.59-1.33-.95-2.19-.95h-7.06l-2.62-2.61-.09-.1a.798.798 0 0 0-.58-.25h-2.07l-2.32-2.31v-.01a.786.786 0 0 0-.61-.28h-1.33l-2-2.01-.01-.01a.778.778 0 0 0-.55-.22h-5.7c-.45 0-.8.36-.8.8v.65c0 .44-.36.79-.8.79h-2.301c-.43 0-.79.36-.79.81v.99a.794.794 0 0 1-.81.8h-3.4a.8.8 0 0 0-.79.8v2.16h-9.55c-1.66 0-3 1.34-3 3v61.2c0 .97.46 1.83 1.17 2.38L78.203 139H139V85.967z" opacity="0.1"/><path class="st16" d="M97.09 112.5H52.91a3 3 0 0 1-3-3V48.293a3 3 0 0 1 3-3h44.18a3 3 0 0 1 3 3V109.5a3 3 0 0 1-3 3z" fill="#E56353"/><path transform="matrix(-1.836970e-16 1 -1 -1.836970e-16 153.897171 3.8966472)" class="st10" fill="#E1E6E9" d="M44.981 57.39h60.038v43.013H44.981z"/><path class="st12" d="M87.547 43.136v6.246c0 .887-.717 1.604-1.604 1.604H64.06a1.602 1.602 0 0 1-1.604-1.604v-6.246a.8.8 0 0 1 .798-.797h3.396a.68.68 0 0 0 .188-.027.79.79 0 0 0 .618-.78v-.985c0-.448.359-.807.798-.807h2.294a.8.8 0 0 0 .797-.797v-.645c0-.44.359-.798.807-.798h5.7a.8.8 0 0 1 .797.798v.645c0 .439.367.797.806.797h2.285c.448 0 .807.359.807.807v.985c0 .386.26.7.618.78a.681.681 0 0 0 .188.027h3.387c.448 0 .807.358.807.797z" fill="#27A2DB"/><ellipse transform="matrix(0.1592349 -0.9872407 0.9872407 0.1592349 -11.2155285 113.9360657)" class="st14" cx="61.2850723" cy="63.5527687" rx="3.1363077" ry="3.1364222" fill="#D5D6DB"/><path class="st20" d="M63.503 61.335l-4.436 4.435a3.137 3.137 0 0 0 4.436-4.435z" fill="#64798A"/><ellipse transform="matrix(0.1592349 -0.9872407 0.9872407 0.1592349 -22.0091782 123.1282806)" class="st14" cx="61.2850723" cy="74.4859161" rx="3.1363077" ry="3.1364222" fill="#D5D6DB"/><path class="st20" d="M63.503 72.268l-4.436 4.436a3.137 3.137 0 0 0 4.436-4.436z" fill="#64798A"/><ellipse transform="matrix(0.1592349 -0.9872407 0.9872407 0.1592349 -32.8028297 132.3204956)" class="st14" cx="61.2850723" cy="85.4190674" rx="3.1363077" ry="3.1364222" fill="#D5D6DB"/><path class="st20" d="M63.503 83.201l-4.436 4.436a3.137 3.137 0 0 0 4.436-4.436z" fill="#64798A"/><g><ellipse transform="matrix(0.1592349 -0.9872407 0.9872407 0.1592349 -43.5964813 141.5126953)" class="st14" cx="61.2850723" cy="96.3522186" rx="3.1363077" ry="3.1364222" fill="#D5D6DB"/><path class="st20" d="M63.503 94.135l-4.436 4.435a3.137 3.137 0 0 0 4.436-4.435z" fill="#64798A"/></g><path class="st14" d="M90.956 62.657H70.158a.896.896 0 1 0 0 1.792h20.798a.896.896 0 1 0 0-1.792z" fill="#D5D6DB"/><path class="st14" d="M90.956 73.59H70.158a.896.896 0 1 0 0 1.792h20.798a.896.896 0 1 0 0-1.792z" fill="#D5D6DB"/><path class="st14" d="M90.956 84.523H70.158a.896.896 0 1 0 0 1.792h20.798a.896.896 0 1 0 0-1.792z" fill="#D5D6DB"/><path class="st14" d="M90.956 95.455H70.158a.896.896 0 1 0 0 1.793h20.798a.896.896 0 1 0 0-1.793z" fill="#D5D6DB"/><path class="st13" d="M83.165 42.312H66.838a.79.79 0 0 0 .618-.78v-.985c0-.448.359-.807.798-.807h2.294a.8.8 0 0 0 .797-.797v-.645c0-.44.359-.798.807-.798h5.7a.8.8 0 0 1 .797.798v.645c0 .439.367.797.806.797h2.285c.448 0 .807.359.807.807v.985c0 .386.26.7.618.78z" fill="#2D93BA"/><metadata><rdf:RDF xmlns:rdf="http://www.w3.org/1999/02/22-rdf-syntax-ns#" xmlns:rdfs="http://www.w3.org/2000/01/rdf-schema#" xmlns:dc="http://purl.org/dc/elements/1.1/"><rdf:Description about="https://iconscout.com/legal#licenses" dc:title="checklist,clipboard,todo,document" dc:description="checklist,clipboard,todo,document" dc:publisher="Iconscout" dc:date="2017-11-08" dc:format="image/svg+xml" dc:language="en"><dc:creator><rdf:Bag><rdf:li>Dinosoft Labs</rdf:li></rdf:Bag></dc:creator></rdf:Description></rdf:RDF></metadata></svg>